<svg xmlns="http://www.w3.org/2000/svg" width="590" height="510" style="background:#fbfbfb;visibility:visible"><g text-rendering="optimize-speed"><g fill="none" stroke="#73A1BF"><path d="M92 255.5a151.5 222 0 0 1 151.5-222"/><path d="M92 255.5a151.5 156 0 0 1 151.5-156"/><path d="M92 255.5a151.5 90 0 0 1 151.5-90M92 255.5h151.5m-151.5 0a151.5 90 0 0 0 151.5 90"/><path d="M92 255.5a151.5 156 0 0 0 151.5 156"/><path d="M92 255.5a151.5 222 0 0 0 151.5 222m126-444h40m-26 66h40m-54 66h40m-67 90c20 0 20-26 40-26m-40 26c20 0 20 26 40 26m-55 64h40m-12 66h40m-53 66h40"/></g><path fill="#73A1BF" stroke="#395060" stroke-width="3" d="M25.5 235.5h133a5 5 0 0 1 5 5v30a5 5 0 0 1-5 5h-133a5 5 0 0 1-5-5v-30a5 5 0 0 1 5-5z"/><text x="44.5" y="245.1" fill="#fff" dy=".8em" font-size="16" text-rendering="inherit">材质Material</text><g stroke="gray" style="cursor:pointer"><path fill="#fff" d="M244.5 33.5a6 6 0 1 1-12 0 6 6 0 1 1 12 0"/><path fill="none" d="M234 33.5h9"/></g><path fill="#EEF3F6" stroke="#73A1BF" d="M248.5 20.5h118a3 3 0 0 1 3 3v20a3 3 0 0 1-3 3h-118a3 3 0 0 1-3-3v-20a3 3 0 0 1 3-3z"/><text x="265.5" y="24.4" dy=".8em" font-size="14" text-rendering="inherit">网格基础材质</text><g stroke="gray" style="cursor:pointer"><path fill="#fff" d="M244.5 99.5a6 6 0 1 1-12 0 6 6 0 1 1 12 0"/><path fill="none" d="M234 99.5h9"/></g><path fill="#EEF3F6" stroke="#73A1BF" d="M248.5 86.5h132a3 3 0 0 1 3 3v20a3 3 0 0 1-3 3h-132a3 3 0 0 1-3-3v-20a3 3 0 0 1 3-3z"/><text x="265.5" y="90.4" dy=".8em" font-size="14" text-rendering="inherit">网格漫反射材质</text><g stroke="gray" style="cursor:pointer"><path fill="#fff" d="M244.5 165.5a6 6 0 1 1-12 0 6 6 0 1 1 12 0"/><path fill="none" d="M234 165.5h9"/></g><path fill="#EEF3F6" stroke="#73A1BF" d="M248.5 152.5h118a3 3 0 0 1 3 3v20a3 3 0 0 1-3 3h-118a3 3 0 0 1-3-3v-20a3 3 0 0 1 3-3z"/><text x="265.5" y="156.4" dy=".8em" font-size="14" text-rendering="inherit">网格高光材质</text><g stroke="gray" style="cursor:pointer"><path fill="#fff" d="M244.5 255.5a6 6 0 1 1-12 0 6 6 0 1 1 12 0"/><path fill="none" d="M234 255.5h9"/></g><path fill="#EEF3F6" stroke="#73A1BF" d="M248.5 242.5h91a3 3 0 0 1 3 3v20a3 3 0 0 1-3 3h-91a3 3 0 0 1-3-3v-20a3 3 0 0 1 3-3z"/><text x="265.5" y="246.4" dy=".8em" font-size="14" text-rendering="inherit">物理材质</text><g stroke="gray" style="cursor:pointer"><path fill="#fff" d="M244.5 345.5a6 6 0 1 1-12 0 6 6 0 1 1 12 0"/><path fill="none" d="M234 345.5h9"/></g><path fill="#EEF3F6" stroke="#73A1BF" d="M248.5 332.5h76a3 3 0 0 1 3 3v20a3 3 0 0 1-3 3h-76a3 3 0 0 1-3-3v-20a3 3 0 0 1 3-3z"/><text x="265.5" y="336.4" dy=".8em" font-size="14" text-rendering="inherit">点材质</text><g stroke="gray" style="cursor:pointer"><path fill="#fff" d="M244.5 411.5a6 6 0 1 1-12 0 6 6 0 1 1 12 0"/><path fill="none" d="M234 411.5h9"/></g><path fill="#EEF3F6" stroke="#73A1BF" d="M248.5 398.5h104a3 3 0 0 1 3 3v20a3 3 0 0 1-3 3h-104a3 3 0 0 1-3-3v-20a3 3 0 0 1 3-3z"/><text x="265.5" y="402.4" dy=".8em" font-size="14" text-rendering="inherit">线基础材质</text><g stroke="gray" style="cursor:pointer"><path fill="#fff" d="M244.5 477.5a6 6 0 1 1-12 0 6 6 0 1 1 12 0"/><path fill="none" d="M234 477.5h9"/></g><path fill="#EEF3F6" stroke="#73A1BF" d="M248.5 464.5h91a3 3 0 0 1 3 3v20a3 3 0 0 1-3 3h-91a3 3 0 0 1-3-3v-20a3 3 0 0 1 3-3z"/><text x="265.5" y="468.4" dy=".8em" font-size="14" text-rendering="inherit">精灵材质</text><path fill="none" d="M414.5 22.5h118a5 5 0 0 1 5 5v12a5 5 0 0 1-5 5h-118a5 5 0 0 1-5-5v-12a5 5 0 0 1 5-5"/><text x="419.5" y="25.7" dy=".8em" font-size="12" text-rendering="inherit">MeshBasicMaterial</text><path fill="none" d="M428.5 88.5h137a5 5 0 0 1 5 5v12a5 5 0 0 1-5 5h-137a5 5 0 0 1-5-5v-12a5 5 0 0 1 5-5"/><text x="433.5" y="91.7" dy=".8em" font-size="12" text-rendering="inherit">MeshLambertMaterial</text><path fill="none" d="M414.5 154.5h126a5 5 0 0 1 5 5v12a5 5 0 0 1-5 5h-126a5 5 0 0 1-5-5v-12a5 5 0 0 1 5-5"/><text x="419.5" y="157.7" dy=".8em" font-size="12" text-rendering="inherit">MeshPhongMaterial</text><path fill="none" d="M387.5 218.5h140a5 5 0 0 1 5 5v12a5 5 0 0 1-5 5h-140a5 5 0 0 1-5-5v-12a5 5 0 0 1 5-5"/><text x="392.5" y="221.7" dy=".8em" font-size="12" text-rendering="inherit">MeshStandardMaterial</text><path fill="none" d="M387.5 270.5h134a5 5 0 0 1 5 5v12a5 5 0 0 1-5 5h-134a5 5 0 0 1-5-5v-12a5 5 0 0 1 5-5"/><text x="392.5" y="273.7" dy=".8em" font-size="12" text-rendering="inherit">MeshPhysicalMaterial</text><path fill="none" d="M372.5 334.5h92a5 5 0 0 1 5 5v12a5 5 0 0 1-5 5h-92a5 5 0 0 1-5-5v-12a5 5 0 0 1 5-5"/><text x="377.5" y="337.7" dy=".8em" font-size="12" text-rendering="inherit">PointsMaterial</text><path fill="none" d="M400.5 400.5h110a5 5 0 0 1 5 5v12a5 5 0 0 1-5 5h-110a5 5 0 0 1-5-5v-12a5 5 0 0 1 5-5"/><text x="405.5" y="403.7" dy=".8em" font-size="12" text-rendering="inherit">LineBasicMaterial</text><path fill="none" d="M387.5 466.5h91a5 5 0 0 1 5 5v12a5 5 0 0 1-5 5h-91a5 5 0 0 1-5-5v-12a5 5 0 0 1 5-5"/><text x="392.5" y="469.7" dy=".8em" font-size="12" text-rendering="inherit">SpriteMaterial</text></g></svg>